<svg width="38" height="38" viewBox="0 0 38 38" fill="none" xmlns="http://www.w3.org/2000/svg">
<g clip-path="url(#clip0_18_446)">
<path d="M36.5038 11.6098C35.0587 8.19976 32.6492 5.30026 29.6174 3.25004C26.5864 1.19982 22.9257 -0.000519363 19 1.68578e-07C16.3835 -0.000148269 13.8829 0.532891 11.61 1.4961C8.19998 2.94129 5.30041 5.35065 3.25011 8.38249C1.19989 11.4133 -0.000519363 15.0741 1.68568e-07 19C-0.000148269 21.6166 0.532965 24.1172 1.49618 26.3902C2.94129 29.8002 5.35087 32.6997 8.38264 34.75C11.4136 36.8002 15.0743 38.0005 19 38C21.6164 38.0001 24.1171 37.4671 26.39 36.5039C29.8 35.0588 32.6996 32.6493 34.7499 29.6175C36.8002 26.5866 38.0005 22.9257 38 19C38.0001 16.3833 37.467 13.8828 36.5038 11.6098ZM34.1713 25.4019C32.9206 28.3544 30.8281 30.8735 28.1985 32.6513C25.5679 34.429 22.4079 35.4661 19.0001 35.4666C16.7276 35.4665 14.5671 35.0051 12.5983 34.1712C9.64584 32.9205 7.12663 30.8281 5.34887 28.1985C3.57096 25.568 2.53383 22.4079 2.53331 19C2.53346 16.7274 2.99488 14.5668 3.82872 12.5981C5.07938 9.64562 7.17191 7.12641 9.80155 5.34872C12.4321 3.57089 15.5922 2.53383 19 2.53331C21.2725 2.53346 23.433 2.9948 25.4017 3.82872C28.3542 5.07931 30.8734 7.17183 32.6512 9.80148C34.429 12.432 35.4661 15.592 35.4666 19.0001C35.4665 21.2726 35.0051 23.4332 34.1713 25.4019Z" fill="white" fill-opacity="0.6"/>
<path d="M28.9152 17.7606H20.2394V9.08482C20.2394 8.40038 19.6844 7.84544 19 7.84544C18.3155 7.84544 17.7606 8.40038 17.7606 9.08482V17.7606H9.08481C8.40036 17.7606 7.84543 18.3156 7.84543 19C7.84543 19.6844 8.40036 20.2394 9.08481 20.2394H17.7606V28.9152C17.7606 29.5996 18.3155 30.1546 19 30.1546C19.6844 30.1546 20.2394 29.5996 20.2394 28.9152V20.2394H28.9152C29.5996 20.2394 30.1545 19.6844 30.1545 19C30.1545 18.3156 29.5997 17.7606 28.9152 17.7606Z" fill="white" fill-opacity="0.6"/>
</g>
<defs>
<clipPath id="clip0_18_446">
<rect width="38" height="38" fill="white"/>
</clipPath>
</defs>
</svg>
